<?xml version="1.0" encoding="UTF-8"?>
<svg id="Warstwa_1" xmlns="http://www.w3.org/2000/svg" version="1.1" viewBox="0 0 200 99.8">
  <!-- Generator: Adobe Illustrator 29.8.2, SVG Export Plug-In . SVG Version: 2.1.1 Build 3)  -->
  <path d="M166.1,38.6c1.8-4.9,11-4.3,15.9-4,3.7.2,11.2.9,9.9,6.2-.5,2.1-5.7,5.9-7.3,8.8-2.5,4.6-2.4,15.4-9.2,15.7-7.6.4-4.8-9.7-5.1-13.9s-3.7-5.9-4.4-9.6-.1-2.5.1-3.2Z"/>
  <path d="M77.8,34.4c3-.4,4.5,1.9,4.5,4.7-.1,4.8-7.6,17.3-10.9,21.2-10.2,11.9-16.4.8-19.4-9.2-1.2-4-3.6-12.5.2-15.6s9,6.5,13,7.3c4.5.9,8.1-7.8,12.6-8.3Z"/>
  <path d="M153.8,34.5c3.4-.1,10.7.7,9.6,5.7-.7,3-8.4,4.3-8.6,5.9s3.3,2.4,3.2,3.8-4.5,3.1-4.3,4.4c.2,1.3,6.1,2.4,6.5,5.2.7,5.4-8.2,6.2-11.9,5.9-8.8-.7-9.1-5.2-8.3-12.7,1-9.7,2.3-17.8,13.9-18.1Z"/>
  <path d="M97.2,34.5c3.4-.1,10.7.7,9.6,5.7s-8.4,4.3-8.6,5.9,3.3,2.4,3.2,3.8-4.5,3.1-4.3,4.4,6.1,2.4,6.5,5.2c.7,5.4-8.2,6.2-11.9,5.9-8.8-.7-9.1-5.2-8.3-12.7s2.3-17.8,13.9-18.1Z"/>
  <path d="M41.6,34.4c1.8,0,3.6,1,4.3,2.6,1.6,3.4,0,12.6-.7,16.5-.8,4.6-1.7,12.5-8.3,11.7s-4.1-7.2-3.7-10.6.9-6.9,1.4-9.9c.7-4,1.9-10.1,7-10.4Z"/>
  <path d="M124.9,36.2c-9-4.2-13.6-1.2-14.8,12.5-.4,4.8-.4,8.3,2.3,12.6,1,1.7,3.3,4,7.6,3.9,3.8,0,6.5-5.7,7.1-8.8.3-1.5,7.6-3,9.9-9.1,3.8-10.3-5.4-8.2-12-11.2ZM123.9,44.8c-1.2,0-2.1-.8-2.1-1.9,0-1,.9-1.9,2.1-1.9,1.2,0,2.1.8,2.1,1.9,0,1-.9,1.9-2.1,1.9Z"/>
  <path d="M15.9,34.4c2-.2,3.9.5,4.9,2.4,2.1,4-1,11.1.2,15.4,1.1,4,7.3,3.4,7.8,6.6s-1.2,4.3-3.3,5.3c-4.5,2-16.4,2.4-17.4-4.1-.8-4.7,1-19.9,4.2-23.6.9-1,2.3-1.9,3.7-2.1Z"/>
</svg>

